<?xml version="1.0" encoding="utf-8"?>
<!-- Generator: Adobe Illustrator 16.0.0, SVG Export Plug-In . SVG Version: 6.00 Build 0)  -->
<!DOCTYPE svg PUBLIC "-//W3C//DTD SVG 1.1//EN" "http://www.w3.org/Graphics/SVG/1.1/DTD/svg11.dtd">
<svg version="1.1" xmlns="http://www.w3.org/2000/svg" xmlns:xlink="http://www.w3.org/1999/xlink" x="0px" y="0px" width="601.5px"
	 height="223px" viewBox="0 0 601.5 223" enable-background="new 0 0 601.5 223" xml:space="preserve">
<g id="Layer_1">
	<g>
		<g>
			<g opacity="0.5">
				
					<image overflow="visible" enable-background="new    " width="1042" height="496" xlink:href="793E453.png"  transform="matrix(0.2395 0 0 0.2376 -25.6899 127.7344)">
				</image>
			</g>
			<g>
				
					<image overflow="visible" opacity="0.15" enable-background="new    " width="800" height="871" xlink:href="793E451.png"  transform="matrix(0.2397 0 0 0.2392 8 8.9995)">
				</image>
				<g>
					<g>
						<g>
							
								<linearGradient id="SVGID_1_" gradientUnits="userSpaceOnUse" x1="12" y1="98.604" x2="80.3818" y2="98.604" gradientTransform="matrix(1 0 0 -1 0 224)">
								<stop  offset="0" style="stop-color:#5AC2B0"/>
								<stop  offset="1" style="stop-color:#2AAAE2"/>
							</linearGradient>
							<polygon fill="url(#SVGID_1_)" points="80.382,208.75 12,165.053 12,42.042 80.273,83.591 							"/>
						</g>
						<g>
							
								<linearGradient id="SVGID_2_" gradientUnits="userSpaceOnUse" x1="80.438" y1="91.5195" x2="191.5581" y2="91.5195" gradientTransform="matrix(1 0 0 -1 0 224)">
								<stop  offset="0" style="stop-color:#5AC2B0"/>
								<stop  offset="1" style="stop-color:#2AAAE2"/>
							</linearGradient>
							<polygon fill="url(#SVGID_2_)" points="191.558,175.818 80.438,209.152 80.438,83.591 191.558,55.809 							"/>
						</g>
						<g>
							
								<linearGradient id="SVGID_3_" gradientUnits="userSpaceOnUse" x1="12.2202" y1="175.7051" x2="191.5581" y2="175.7051" gradientTransform="matrix(1 0 0 -1 0 224)">
								<stop  offset="0" style="stop-color:#5AC2B0"/>
								<stop  offset="1" style="stop-color:#2AAAE2"/>
							</linearGradient>
							<polygon fill="url(#SVGID_3_)" points="191.558,55.809 80.438,83.591 12.22,42.042 116,13 							"/>
						</g>
					</g>
				</g>
			</g>
			<path fill="#E82264" d="M150.163,83.791c21.067,0,37.555,16.793,37.555,43.662s-16.64,43.967-37.555,43.967
				c-12.519,0-21.526-5.648-26.258-13.129v11.908H97.8V79.25L63,55.809l23.36-8.016l37.544,24.931v24.349
				C128.637,89.439,137.949,83.791,150.163,83.791z M142.376,106.538c-9.771,0-18.625,7.481-18.625,21.067
				c0,13.588,8.854,21.067,18.625,21.067c9.923,0,18.778-7.633,18.778-21.22C161.154,113.865,152.3,106.538,142.376,106.538z"/>
			<path fill="#2D3079" d="M240.233,171.42c-25.037,0-43.967-16.793-43.967-43.814c0-27.021,19.389-43.813,44.273-43.813
				c25.037,0,44.272,16.793,44.272,43.813C284.811,154.627,265.271,171.42,240.233,171.42z M240.233,148.826
				c9.313,0,18.015-6.87,18.015-21.221c0-14.504-8.549-21.221-17.709-21.221c-9.465,0-17.709,6.717-17.709,21.221
				C222.83,141.956,230.769,148.826,240.233,148.826z"/>
			<path fill="#2D3079" d="M336.26,83.791c21.373,0,36.486,11.755,40.914,32.059h-27.785c-2.137-5.953-6.412-9.77-13.587-9.77
				c-9.313,0-15.725,7.329-15.725,21.525c0,14.197,6.412,21.525,15.725,21.525c7.175,0,11.297-3.512,13.587-9.771h27.785
				c-4.428,19.695-19.541,32.061-40.914,32.061c-25.037,0-42.746-16.793-42.746-43.814
				C293.514,100.736,311.223,83.791,336.26,83.791z"/>
			<path fill="#2D3079" d="M425.111,146.535l-13.74,23.664h-28.243l28.091-43.51l-28.854-41.677h29.312l16.335,23.51l13.739-23.51
				h28.243l-28.548,42.898l29.312,42.289h-29.312L425.111,146.535z"/>
			<path fill="#2D3079" d="M539.61,85.012h28.241L514.42,210.654h-28.09l19.541-43.355l-34.654-82.287h29.158l19.694,53.28
				L539.61,85.012z"/>
		</g>
		<circle fill="#E82264" cx="145.333" cy="130.334" r="25"/>
		
			<linearGradient id="SVGID_4_" gradientUnits="userSpaceOnUse" x1="134" y1="94.5298" x2="167.7261" y2="94.5298" gradientTransform="matrix(1 0 0 -1 0 224)">
			<stop  offset="0" style="stop-color:#5AC2B0"/>
			<stop  offset="1" style="stop-color:#2AAAE2"/>
		</linearGradient>
		<circle fill="url(#SVGID_4_)" cx="150.863" cy="129.47" r="16.863"/>
	</g>
</g>
<g id="Layer_2_copy_2" display="none">
	<g display="inline">
		<path d="M578.285,102.199c-4.935,0-8.948-4.014-8.948-8.948s4.014-8.948,8.948-8.948s8.948,4.014,8.948,8.948
			S583.22,102.199,578.285,102.199z M578.285,85.459c-4.296,0-7.792,3.495-7.792,7.792s3.496,7.792,7.792,7.792
			s7.792-3.495,7.792-7.792S582.581,85.459,578.285,85.459z"/>
	</g>
	<g display="inline">
		<path d="M574.199,98.387V88.063h4.387c1.103,0,1.905,0.093,2.404,0.278c0.501,0.186,0.901,0.516,1.202,0.99
			c0.3,0.474,0.45,1.017,0.45,1.627c0,0.775-0.229,1.415-0.684,1.919c-0.455,0.505-1.136,0.823-2.042,0.954
			c0.45,0.263,0.823,0.552,1.116,0.866c0.294,0.315,0.689,0.874,1.188,1.676l1.26,2.014h-2.493l-1.508-2.246
			c-0.535-0.803-0.9-1.309-1.099-1.519c-0.196-0.208-0.405-0.352-0.626-0.429s-0.57-0.116-1.05-0.116h-0.422v4.31H574.199z
			 M576.283,92.429h1.542c1,0,1.624-0.042,1.874-0.127c0.248-0.084,0.443-0.229,0.585-0.436c0.14-0.207,0.211-0.465,0.211-0.775
			c0-0.348-0.094-0.628-0.279-0.842c-0.185-0.213-0.447-0.349-0.784-0.405c-0.17-0.023-0.677-0.036-1.521-0.036h-1.627V92.429z"/>
	</g>
</g>
<g id="Layer_6">
	<g>
		<path d="M573.374,95v-8.092h-2.8V85.06h7.686v1.849h-2.8V95H573.374z"/>
		<path d="M579.744,95v-9.94h1.96l3.136,5.74l3.15-5.74h1.89V95h-2.016v-6.286l-2.311,4.214h-1.483l-2.311-4.214V95H579.744z"/>
	</g>
</g>
<g id="Logo-white" display="none">
	<g id="Layer_4" display="inline">
		<g>
			<g>
				<g opacity="0.5">
					
						<image overflow="visible" enable-background="new    " width="1042" height="496" xlink:href="793E457.png"  transform="matrix(0.2395 0 0 0.2376 -25.6899 127.7344)">
					</image>
				</g>
				<g>
					
						<image overflow="visible" opacity="0.15" enable-background="new    " width="800" height="871" xlink:href="793E450.png"  transform="matrix(0.2397 0 0 0.2392 8 8.9995)">
					</image>
					<g>
						<g>
							<g>
								
									<linearGradient id="SVGID_5_" gradientUnits="userSpaceOnUse" x1="12" y1="98.604" x2="80.3818" y2="98.604" gradientTransform="matrix(1 0 0 -1 0 224)">
									<stop  offset="0" style="stop-color:#5AC2B0"/>
									<stop  offset="1" style="stop-color:#2AAAE2"/>
								</linearGradient>
								<polygon fill="url(#SVGID_5_)" points="80.382,208.75 12,165.053 12,42.042 80.273,83.591 								"/>
							</g>
							<g>
								
									<linearGradient id="SVGID_6_" gradientUnits="userSpaceOnUse" x1="80.438" y1="91.5195" x2="191.5581" y2="91.5195" gradientTransform="matrix(1 0 0 -1 0 224)">
									<stop  offset="0" style="stop-color:#5AC2B0"/>
									<stop  offset="1" style="stop-color:#2AAAE2"/>
								</linearGradient>
								<polygon fill="url(#SVGID_6_)" points="191.558,175.818 80.438,209.152 80.438,83.591 191.558,55.809 								"/>
							</g>
							<g>
								
									<linearGradient id="SVGID_7_" gradientUnits="userSpaceOnUse" x1="12.2202" y1="175.7051" x2="191.5581" y2="175.7051" gradientTransform="matrix(1 0 0 -1 0 224)">
									<stop  offset="0" style="stop-color:#5AC2B0"/>
									<stop  offset="1" style="stop-color:#2AAAE2"/>
								</linearGradient>
								<polygon fill="url(#SVGID_7_)" points="191.558,55.809 80.438,83.591 12.22,42.042 116,13 								"/>
							</g>
						</g>
					</g>
				</g>
				<path fill="#E82264" d="M150.163,83.791c21.067,0,37.555,16.793,37.555,43.662s-16.64,43.967-37.555,43.967
					c-12.519,0-21.526-5.648-26.258-13.129v11.908H97.8V79.25L63,55.809l23.36-8.016l37.544,24.931v24.349
					C128.637,89.439,137.949,83.791,150.163,83.791z M142.376,106.538c-9.771,0-18.625,7.481-18.625,21.067
					c0,13.588,8.854,21.067,18.625,21.067c9.923,0,18.778-7.633,18.778-21.22C161.154,113.865,152.3,106.538,142.376,106.538z"/>
				<path fill="#FFFFFF" d="M240.233,171.42c-25.037,0-43.967-16.793-43.967-43.814c0-27.021,19.389-43.813,44.273-43.813
					c25.037,0,44.272,16.793,44.272,43.813C284.811,154.627,265.271,171.42,240.233,171.42z M240.233,148.826
					c9.313,0,18.015-6.87,18.015-21.221c0-14.504-8.549-21.221-17.709-21.221c-9.465,0-17.709,6.717-17.709,21.221
					C222.83,141.956,230.769,148.826,240.233,148.826z"/>
				<path fill="#FFFFFF" d="M336.26,83.791c21.373,0,36.486,11.755,40.914,32.059h-27.785c-2.137-5.953-6.412-9.77-13.587-9.77
					c-9.313,0-15.725,7.329-15.725,21.525c0,14.197,6.412,21.525,15.725,21.525c7.175,0,11.297-3.512,13.587-9.771h27.785
					c-4.428,19.695-19.541,32.061-40.914,32.061c-25.037,0-42.746-16.793-42.746-43.814
					C293.514,100.736,311.223,83.791,336.26,83.791z"/>
				<path fill="#FFFFFF" d="M425.111,146.535l-13.74,23.664h-28.243l28.091-43.51l-28.854-41.677h29.312l16.335,23.51l13.739-23.51
					h28.243l-28.548,42.898l29.312,42.289h-29.312L425.111,146.535z"/>
				<path fill="#FFFFFF" d="M539.61,85.012h28.241L514.42,210.654h-28.09l19.541-43.355l-34.654-82.287h29.158l19.694,53.28
					L539.61,85.012z"/>
			</g>
			<circle fill="#E82264" cx="145.333" cy="130.334" r="25"/>
			
				<linearGradient id="SVGID_8_" gradientUnits="userSpaceOnUse" x1="134" y1="94.5298" x2="167.7261" y2="94.5298" gradientTransform="matrix(1 0 0 -1 0 224)">
				<stop  offset="0" style="stop-color:#5AC2B0"/>
				<stop  offset="1" style="stop-color:#2AAAE2"/>
			</linearGradient>
			<circle fill="url(#SVGID_8_)" cx="150.863" cy="129.47" r="16.863"/>
		</g>
		<g>
			<path fill="#FFFFFF" d="M578.285,102.199c-4.935,0-8.948-4.014-8.948-8.948s4.014-8.948,8.948-8.948s8.948,4.014,8.948,8.948
				S583.22,102.199,578.285,102.199z M578.285,85.459c-4.296,0-7.792,3.495-7.792,7.792s3.496,7.792,7.792,7.792
				s7.792-3.495,7.792-7.792S582.581,85.459,578.285,85.459z"/>
		</g>
		<g>
			<path fill="#FFFFFF" d="M574.199,98.387V88.063h4.387c1.103,0,1.905,0.093,2.404,0.278c0.501,0.186,0.901,0.516,1.202,0.99
				c0.3,0.474,0.45,1.017,0.45,1.627c0,0.775-0.229,1.415-0.684,1.919c-0.455,0.505-1.136,0.823-2.042,0.954
				c0.45,0.263,0.823,0.552,1.116,0.866c0.294,0.315,0.689,0.874,1.188,1.676l1.26,2.014h-2.493l-1.508-2.246
				c-0.535-0.803-0.9-1.309-1.099-1.519c-0.196-0.208-0.405-0.352-0.626-0.429s-0.57-0.116-1.05-0.116h-0.422v4.31H574.199z
				 M576.283,92.429h1.542c1,0,1.624-0.042,1.874-0.127c0.248-0.084,0.443-0.229,0.585-0.436c0.14-0.207,0.211-0.465,0.211-0.775
				c0-0.348-0.094-0.628-0.279-0.842c-0.185-0.213-0.447-0.349-0.784-0.405c-0.17-0.023-0.677-0.036-1.521-0.036h-1.627V92.429z"/>
		</g>
	</g>
	<g id="Layer_2_copy" display="inline">
		<g>
			<path fill="#FFFFFF" d="M578.285,102.199c-4.935,0-8.948-4.014-8.948-8.948s4.014-8.948,8.948-8.948s8.948,4.014,8.948,8.948
				S583.22,102.199,578.285,102.199z M578.285,85.459c-4.296,0-7.792,3.495-7.792,7.792s3.496,7.792,7.792,7.792
				s7.792-3.495,7.792-7.792S582.581,85.459,578.285,85.459z"/>
		</g>
		<g>
			<path fill="#FFFFFF" d="M574.199,98.387V88.063h4.387c1.103,0,1.905,0.093,2.404,0.278c0.501,0.186,0.901,0.516,1.202,0.99
				c0.3,0.474,0.45,1.017,0.45,1.627c0,0.775-0.229,1.415-0.684,1.919c-0.455,0.505-1.136,0.823-2.042,0.954
				c0.45,0.263,0.823,0.552,1.116,0.866c0.294,0.315,0.689,0.874,1.188,1.676l1.26,2.014h-2.493l-1.508-2.246
				c-0.535-0.803-0.9-1.309-1.099-1.519c-0.196-0.208-0.405-0.352-0.626-0.429s-0.57-0.116-1.05-0.116h-0.422v4.31H574.199z
				 M576.283,92.429h1.542c1,0,1.624-0.042,1.874-0.127c0.248-0.084,0.443-0.229,0.585-0.436c0.14-0.207,0.211-0.465,0.211-0.775
				c0-0.348-0.094-0.628-0.279-0.842c-0.185-0.213-0.447-0.349-0.784-0.405c-0.17-0.023-0.677-0.036-1.521-0.036h-1.627V92.429z"/>
		</g>
	</g>
</g>
</svg>
